name D:\school\WTK\thesis\model\3dpredictsim\Results\debug_batch\Pog_s1_tmt_aCst_d00_k800_ig24_act_TTC.mot
datacolumns 128
datarows 4
range 1.32203091 1.36169184
endheader
time	pelvis_tilt	pelvis_list	pelvis_rotation	pelvis_tx	pelvis_ty	pelvis_tz	hip_flexion_l	hip_adduction_l	hip_rotation_l	hip_flexion_r	hip_adduction_r	hip_rotation_r	knee_angle_l	knee_angle_r	ankle_angle_l	ankle_angle_r	subtalar_angle_l	subtalar_angle_r	tmt_angle_l	tmt_angle_r	mtp_angle_l	mtp_angle_r	lumbar_extension	lumbar_bending	lumbar_rotation	arm_flex_l	arm_add_l	arm_rot_l	arm_flex_r	arm_add_r	arm_rot_r	elbow_flex_l	elbow_flex_r	pro_sup_l	pro_sup_r	glut_med1_l/activation	glut_med2_l/activation	glut_med3_l/activation	glut_min1_l/activation	glut_min2_l/activation	glut_min3_l/activation	semimem_l/activation	semiten_l/activation	bifemlh_l/activation	bifemsh_l/activation	sar_l/activation	add_long_l/activation	add_brev_l/activation	add_mag1_l/activation	add_mag2_l/activation	add_mag3_l/activation	tfl_l/activation	pect_l/activation	grac_l/activation	glut_max1_l/activation	glut_max2_l/activation	glut_max3_l/activation	iliacus_l/activation	psoas_l/activation	quad_fem_l/activation	gem_l/activation	peri_l/activation	rect_fem_l/activation	vas_med_l/activation	vas_int_l/activation	vas_lat_l/activation	med_gas_l/activation	lat_gas_l/activation	soleus_l/activation	tib_post_l/activation	flex_dig_l/activation	flex_hal_l/activation	tib_ant_l/activation	per_brev_l/activation	per_long_l/activation	per_tert_l/activation	ext_dig_l/activation	ext_hal_l/activation	ercspn_l/activation	intobl_l/activation	extobl_l/activation	glut_med1_r/activation	glut_med2_r/activation	glut_med3_r/activation	glut_min1_r/activation	glut_min2_r/activation	glut_min3_r/activation	semimem_r/activation	semiten_r/activation	bifemlh_r/activation	bifemsh_r/activation	sar_r/activation	add_long_r/activation	add_brev_r/activation	add_mag1_r/activation	add_mag2_r/activation	add_mag3_r/activation	tfl_r/activation	pect_r/activation	grac_r/activation	glut_max1_r/activation	glut_max2_r/activation	glut_max3_r/activation	iliacus_r/activation	psoas_r/activation	quad_fem_r/activation	gem_r/activation	peri_r/activation	rect_fem_r/activation	vas_med_r/activation	vas_int_r/activation	vas_lat_r/activation	med_gas_r/activation	lat_gas_r/activation	soleus_r/activation	tib_post_r/activation	flex_dig_r/activation	flex_hal_r/activation	tib_ant_r/activation	per_brev_r/activation	per_long_r/activation	per_tert_r/activation	ext_dig_r/activation	ext_hal_r/activation	ercspn_r/activation	intobl_r/activation	extobl_r/activation	
          1.32203091	         -2.92998753	         -1.49548934	         10.03466286	          1.65253864	          0.84779749	         -0.00389606	        -17.69657208	         -3.83651414	          7.48868424	         34.90836203	          0.43225639	          0.23478059	        -16.44339612	        -15.81755686	        -10.02745849	          9.46064529	         17.71498778	         -3.35291295	          1.37210256	          0.02279388	         30.67198194	         -0.07331006	         -0.12109120	         -1.12463677	         -3.98306041	          2.29928772	        -13.59259893	         17.55945308	        -13.46446614	        -13.69303219	         10.27580286	         51.21478524	         17.83911591	         86.51662706	         86.51662706	          0.12444538	          0.06646618	          0.06269584	          0.18793185	          0.12976297	          0.08825251	          0.05000058	          0.05000005	          0.05000005	          0.05000018	          0.09065344	          0.11327774	          0.12028235	          0.05000078	          0.05000062	          0.05000014	          0.16587964	          0.11625146	          0.06274956	          0.05000116	          0.05000058	          0.05000035	          0.32762638	          0.51154108	          0.07689436	          0.05000109	          0.05262104	          0.25917826	          0.07268336	          0.06510377	          0.05191175	          0.15448084	          0.22720357	          0.05322151	          0.15074494	          0.20224122	          0.20379763	          0.18640347	          0.44001516	          0.35121265	          0.49504404	          0.40774548	          0.05000005	          0.05000002	          0.05000002	          0.07446062	          0.05447039	          0.05000025	          0.05000007	          0.06101698	          0.06101687	          0.05000237	          0.16211626	          0.06951804	          0.12389538	          0.06101710	          0.06101704	          0.10600214	          0.17231090	          0.10777711	          0.06541917	          0.13767003	          0.05000008	          0.07446185	          0.10759779	          0.05000010	          0.05000007	          0.16585686	          0.07446122	          0.06982360	          0.16350327	          0.22008307	          0.21469867	          0.05000091	          0.15687500	          0.16236046	          0.13981212	          0.06661747	          0.06659593	          0.06101691	          0.05000099	          0.06101694	          0.06101710	          0.58982948	          0.37141867	          0.21601904	          0.48975695	          0.63169643	          0.51471158	          0.05000011	          0.12894850	          0.11088967	
          1.33525122	         -2.92960562	         -1.45138032	         10.17619886	          1.67473659	          0.84611162	         -0.00342836	        -17.72909973	         -4.06051652	          7.20483399	         34.11916511	          0.76174777	          0.41178707	        -18.14324659	        -16.26289360	        -13.16669313	          8.53773846	         17.80770881	         -3.74401157	          0.95554081	          0.01712398	         31.77500315	         -0.02074371	          0.17626390	         -0.92609102	         -4.11309445	          1.62456162	        -13.69197041	         17.79677367	        -15.15801365	        -13.67922661	         10.23846048	         52.58019654	         17.79535046	         86.51662706	         86.51662706	          0.10197615	          0.05446542	          0.06101701	          0.15399983	          0.10633363	          0.07231814	          0.06381554	          0.06101698	          0.06101759	          0.05000027	          0.07428559	          0.22294860	          0.15427675	          0.33287728	          0.11180068	          0.13097255	          0.13592923	          0.09526184	          0.06101783	          0.05002048	          0.06095584	          0.06101961	          0.26847175	          0.41917972	          0.07015815	          0.06104660	          0.06101753	          0.21238228	          0.05956196	          0.05335951	          0.11088948	          0.12658852	          0.18618078	          0.05000000	          0.12352716	          0.16572553	          0.16700091	          0.43795017	          0.51499616	          0.35582414	          0.73159967	          0.55753199	          0.25108545	          0.07752525	          0.06101694	          0.06101645	          0.17758689	          0.05000039	          0.18958972	          0.05000009	          0.05000007	          0.05000013	          0.13284535	          0.05696624	          0.10152544	          0.05000016	          0.05000015	          0.08686296	          0.14119934	          0.26326648	          0.23281836	          0.15404906	          0.05000082	          0.06101769	          0.08817061	          0.15849530	          0.14798404	          0.15593290	          0.06101688	          0.05721667	          0.34880927	          0.18034596	          0.17593376	          0.06101701	          0.25879357	          0.25910311	          0.22850663	          0.05458934	          0.05457170	          0.05000000	          0.05000037	          0.05000035	          0.05000025	          0.62638144	          0.41660347	          0.25054073	          0.55315771	          0.61679645	          0.42177776	          0.05000000	          0.10566617	          0.09086797	
          1.34847153	         -2.92370561	         -1.40829621	         10.27006147	          1.69687752	          0.84402109	         -0.00297399	        -17.50159850	         -4.23122246	          6.92789921	         33.16326427	          1.08193696	          0.63817551	        -20.33888932	        -17.07083069	        -15.69573181	          7.80070925	         17.79273370	         -4.13486748	          0.66955966	         -0.00820094	         30.95100387	         -0.20807270	          0.45382587	         -0.70947249	         -4.22150389	          0.92525415	        -13.79524883	         17.96264565	        -16.75348954	        -13.67886058	         10.34271058	         53.90138709	         17.63531412	         86.51662706	         86.51662706	          0.25909570	          0.06101685	          0.05000033	          0.22995105	          0.08713539	          0.06101686	          0.10131784	          0.05000011	          0.05000060	          0.05000008	          0.06101781	          0.18269408	          0.12642133	          0.27277457	          0.09161455	          0.10732483	          0.11138689	          0.07806196	          0.05000086	          0.05000210	          0.05000103	          0.05000233	          0.21999784	          0.41192650	          0.05749076	          0.05002447	          0.05000058	          0.17403556	          0.06380316	          0.06782408	          0.09086786	          0.10373230	          0.15256488	          0.05000009	          0.10122369	          0.13580294	          0.13684804	          0.37653086	          0.42201199	          0.30171841	          0.83818050	          0.76481401	          0.20575071	          0.10889027	          0.05000001	          0.05000003	          0.28383731	          0.36554803	          0.51121224	          0.21002134	          0.27251263	          0.28231057	          0.10885948	          0.09332876	          0.09926007	          0.07446132	          0.05000937	          0.07117943	          0.11570509	          0.21573240	          0.19078191	          0.16940129	          0.05000012	          0.05000098	          0.07225107	          0.30204127	          0.23840469	          0.18818414	          0.05000004	          0.05000003	          0.35640343	          0.14778392	          0.34037912	          0.05000009	          0.21206708	          0.21232074	          0.18724861	          0.05000001	          0.05000004	          0.05000001	          0.05000003	          0.06101697	          0.06101693	          0.75815867	          0.48653465	          0.24578345	          0.76248884	          0.74410125	          0.57251009	          0.06124902	          0.09086815	          0.07446128	
          1.36169184	         -2.91621396	         -1.37312307	         10.30967492	          1.71848347	          0.84191328	         -0.00246833	        -16.97562673	         -4.37101826	          6.67696559	         32.28927961	          1.41922049	          0.85850175	        -23.03435512	        -18.01472668	        -17.47204756	          7.14448934	         17.66144860	         -4.56678763	          0.44339750	         -0.02268595	         27.89943336	         -0.21977019	          0.67619546	         -0.47165097	         -4.30700683	          0.29579123	        -13.87502400	         18.06804035	        -18.12628647	        -13.67634790	         10.63519347	         55.05299696	         17.26980165	         86.51662706	         86.51662706	          0.21231467	          0.05000005	          0.05000001	          0.18843227	          0.07140271	          0.05000010	          0.15004336	          0.05000008	          0.05000010	          0.05000004	          0.05000100	          0.20742129	          0.12142772	          0.22352569	          0.07507410	          0.11088520	          0.09127545	          0.06396781	          0.05000012	          0.05000060	          0.05000037	          0.05000018	          0.18027610	          0.36360733	          0.05000003	          0.05000012	          0.05000003	          0.14261254	          0.07446128	          0.07446128	          0.07446128	          0.08500290	          0.12501850	          0.05000002	          0.08294723	          0.11128304	          0.11213943	          0.47813598	          0.43287308	          0.29840895	          0.82854731	          0.62672293	          0.48641159	          0.14244083	          0.05000000	          0.05000002	          0.39105442	          0.53021838	          0.69240466	          0.22001244	          0.26709900	          0.49289559	          0.08920434	          0.09582150	          0.08133820	          0.06101704	          0.05000009	          0.06101687	          0.09481407	          0.22996781	          0.23760080	          0.18810058	          0.05000008	          0.05008119	          0.11423264	          0.37758205	          0.29253966	          0.23318821	          0.05000004	          0.05000003	          0.29205306	          0.12110086	          0.34142074	          0.05000000	          0.31568057	          0.32769214	          0.28170130	          0.05000000	          0.05000001	          0.05000000	          0.05000000	          0.05000008	          0.05000004	          0.87145332	          0.39868829	          0.20140597	          0.83431095	          0.75361748	          0.66875556	          0.09445514	          0.07446143	          0.06101691	
